<svg xmlns="http://www.w3.org/2000/svg" width="24" height="16" viewBox="0 0 24 16">
    <path fill="#DEE2ED" fill-rule="nonzero" d="M12 2C7.797 2 3.985 4.28 1.172 7.982a.857.857 0 0 0 0 1.031C3.985 12.72 7.797 15 12 15c4.203 0 8.015-2.28 10.828-5.982a.857.857 0 0 0 0-1.031C20.015 4.28 16.203 2 12 2zm.302 11.077c-2.79.174-5.095-2.105-4.92-4.876.145-2.284 2.012-4.135 4.316-4.278 2.79-.174 5.095 2.105 4.92 4.876-.15 2.28-2.017 4.131-4.316 4.278zm-.14-2.114c-1.503.093-2.745-1.134-2.646-2.624.076-1.23 1.084-2.226 2.326-2.306 1.504-.094 2.746 1.133 2.647 2.623a2.491 2.491 0 0 1-2.327 2.307z"/>
</svg>
