<svg xmlns="http://www.w3.org/2000/svg" width="16" height="16" viewBox="0 0 16 16">
    <path fill="#4C71F3" fill-rule="evenodd" d="M12.256 15.58c.215.18.491.224.738.114.247-.111.428-.36.483-.662.579-3.217 1.984-11.359 2.512-14.285a.682.682 0 0 0-.174-.597.471.471 0 0 0-.531-.11C12.489 1.261 3.88 5.077.36 6.616c-.223.097-.368.35-.361.629.008.279.167.52.395.602 1.578.557 3.65 1.333 3.65 1.333s.968 3.454 1.472 5.21c.064.221.21.395.402.455a.517.517 0 0 0 .54-.163l2.065-2.303s2.381 2.063 3.732 3.2zm-7.34-6.835l1.12 4.362.248-2.762 6.79-7.236a.248.248 0 0 0 .022-.297c-.06-.09-.169-.112-.25-.05l-7.93 5.983z"/>
</svg>
