<svg xmlns="http://www.w3.org/2000/svg" width="16" height="16" viewBox="0 0 16 16">
    <g fill="none" fill-rule="evenodd">
        <path fill="#4C71F3" d="M8 14.883l-2.07.844-1.371-1.766-2.216-.304-.304-2.216-1.766-1.37L1.117 8 .273 5.93l1.766-1.371.304-2.216L4.56 2.04 5.929.273 8 1.117l2.07-.844 1.371 1.766 2.216.304.304 2.216 1.766 1.37L14.883 8l.844 2.07-1.766 1.371-.304 2.216-2.216.304-1.37 1.766z"/>
        <path fill="#FFF" d="M7.652 10.254l3.877-3.796a.547.547 0 0 0 0-.794.6.6 0 0 0-.824 0L7.034 9.262 5.696 7.886a.6.6 0 0 0-.825 0 .546.546 0 0 0 0 .794l1.544 1.574a.888.888 0 0 0 .619.246.886.886 0 0 0 .618-.246z"/>
    </g>
</svg>
