<svg xmlns="http://www.w3.org/2000/svg" width="16" height="10" viewBox="0 0 16 10">
    <path fill="#4C71F3" fill-rule="evenodd" d="M15.633.643c.111-.37 0-.643-.53-.643h-1.75c-.445 0-.65.235-.761.495 0 0-.89 2.17-2.152 3.58-.408.407-.593.537-.816.537-.11 0-.272-.13-.272-.5V.642c0-.445-.129-.643-.5-.643h-2.75c-.279 0-.446.207-.446.402 0 .422.63.52.695 1.706v2.578c0 .565-.102.668-.324.668-.593 0-2.037-2.18-2.893-4.673C2.966.196 2.798 0 2.351 0H.6C.1 0 0 .235 0 .495c0 .464.594 2.763 2.763 5.804C4.21 8.376 6.247 9.502 8.102 9.502c1.113 0 1.25-.25 1.25-.68v-1.57c0-.5.106-.6.458-.6.26 0 .705.13 1.743 1.13 1.187 1.188 1.383 1.72 2.05 1.72h1.75c.5 0 .75-.25.606-.743-.157-.492-.724-1.206-1.476-2.052-.408-.482-1.02-1.001-1.205-1.26-.26-.334-.186-.483 0-.78 0 0 2.132-3.004 2.355-4.024"/>
</svg>
